<svg width="53" height="20" viewBox="0 0 53 20" fill="none" xmlns="http://www.w3.org/2000/svg">
<path d="M22.0562 17.5545C21.6761 17.1419 19.5711 14.7786 19.4555 14.4561C19.3811 14.2485 19.4491 13.7256 19.8592 13.3769C20.2691 13.0283 20.7133 12.9418 20.8564 13.0296C21.2372 13.2635 22.9863 14.9003 23.1077 15.0275C23.2292 15.1546 23.323 15.1611 23.4019 14.9901C23.9883 13.7198 25.2273 11.6032 25.9866 10.3965C26.5848 9.4458 27.8519 7.5465 30.0915 5.8794C31.0353 5.17675 32.1409 4.97807 32.5386 4.98453C32.8516 4.98959 32.9746 5.1688 32.7451 5.33505C32.1964 5.7325 31.3803 6.5596 30.6949 7.4205C29.6192 8.77165 28.6946 10.225 27.8285 11.7155C27.0215 13.1042 25.0576 16.5909 24.5337 17.4679C24.2338 17.9414 22.6471 18.1454 22.0562 17.5545Z" fill="#9E9E9E"/>
<path d="M28.4856 12.0972C28.2859 12.4407 28.0116 12.9196 27.7075 13.4525L30.3214 12.6322L29.4007 10.582C29.1037 11.0531 28.8 11.556 28.4856 12.0972Z" fill="white"/>
<path d="M8.32869 7.93506H7.96094V10.0003H8.30044C8.78134 10.0003 9.17744 9.91541 9.43199 9.74571C9.68659 9.60421 9.82804 9.32131 9.82804 8.95351C9.82804 8.27461 9.31879 7.93506 8.32869 7.93506Z" fill="white"/>
<path d="M18.7405 14.7118C18.6769 14.5342 18.6579 14.3446 18.6721 14.1542C18.5831 14.1568 18.493 14.1587 18.3999 14.1587C17.5795 14.1587 16.8439 14.0739 16.2216 13.8758C15.5709 13.6777 15.0335 13.4231 14.5808 13.0836C14.1282 12.7441 13.7887 12.3199 13.5624 11.8389C13.3361 11.3297 13.2228 10.7921 13.2228 10.198C13.2228 9.604 13.3361 9.0665 13.5906 8.5573C13.8452 8.0763 14.1846 7.65205 14.6373 7.28425C15.0899 6.94475 15.6274 6.66195 16.2498 6.46385C16.8721 6.2658 17.5512 6.18095 18.2866 6.18095C18.8525 6.18095 19.3899 6.2092 19.8708 6.29405C20.3517 6.40725 20.3517 6.40725 20.7196 6.5486V8.61375C20.4367 8.44405 20.0971 8.3026 19.7295 8.21775C19.3617 8.10455 18.9657 8.04805 18.5695 8.04805C17.8906 8.04805 17.3532 8.2461 16.9288 8.5855C16.5044 8.9533 16.3064 9.46255 16.3064 10.1697C16.3064 10.5092 16.363 10.8204 16.5045 11.1033C16.646 11.3579 16.8157 11.5842 17.042 11.754C17.2683 11.9237 17.5229 12.0651 17.8342 12.15C18.1453 12.2348 18.4566 12.2915 18.796 12.2915C19.1354 12.2915 19.5033 12.2633 19.8427 12.1783C20.1821 12.0933 20.55 12.0085 20.9178 11.8387V12.2574C21.0404 12.2794 21.1537 12.3195 21.2544 12.3813C21.426 12.4867 21.7644 12.7698 22.1343 13.0959V6.2939H25.1047V10.3755C25.1897 10.2374 25.2699 10.1086 25.3438 9.991C25.6609 9.4871 26.4388 8.2517 27.7542 6.91435L24.649 0L0 1.37433L6.84215 20L19.6635 15.9764C18.846 15.0047 18.7879 14.8437 18.7405 14.7118ZM22.3605 2.61632C22.7001 2.30516 23.1243 2.1637 23.6335 2.1637C24.1427 2.1637 24.5671 2.30516 24.9065 2.61632C25.246 2.89924 25.4158 3.32362 25.4158 3.8611C25.4158 4.37033 25.246 4.79471 24.9065 5.0775C24.567 5.3603 24.1427 5.53015 23.6335 5.53015C23.1243 5.53015 22.6999 5.38865 22.3605 5.0775C22.021 4.79458 21.8512 4.3702 21.8512 3.8611C21.8514 3.32362 22.0211 2.92748 22.3605 2.61632ZM12.346 10.1414C12.1479 10.481 11.8651 10.7921 11.4973 11.0184C11.1296 11.2448 10.6769 11.4145 10.1677 11.5277C9.65845 11.6409 9.0926 11.6974 8.44205 11.6974H7.9894V14.0171H5.0471V6.29405H8.4985C9.7999 6.29405 10.8182 6.52035 11.5538 6.94475C12.2893 7.3691 12.6571 8.04805 12.6571 8.92505C12.6571 9.37755 12.544 9.7737 12.346 10.1414Z" fill="white"/>
<path d="M34.8896 9.81695V3.27344H37.2616C39.2273 3.27344 40.5471 4.5286 40.5471 6.5498C40.5471 8.57105 39.2273 9.81695 37.2522 9.81695H34.8896ZM37.1968 8.44175C38.2027 8.44175 39.0243 7.86035 39.0243 6.5498C39.0243 5.2393 38.2029 4.64853 37.1968 4.64853H36.3478V8.44175H37.1968Z" fill="#9E9E9E"/>
<path d="M44.7729 5.2483C44.7268 4.94374 44.4776 4.42691 43.6839 4.42691C43.1393 4.42691 42.7887 4.76834 42.7887 5.12825C42.7887 5.4422 42.9824 5.6728 43.4348 5.7559L44.3115 5.92205C45.5576 6.1528 46.2035 6.9557 46.2035 7.8878C46.2035 8.91235 45.3452 9.95515 43.7855 9.95515C41.9765 9.95515 41.2012 8.78305 41.1089 7.8602L42.4471 7.53715C42.5026 8.1369 42.9086 8.6631 43.8038 8.6631C44.3761 8.6631 44.7267 8.38615 44.7267 7.98015C44.7267 7.6478 44.4591 7.40785 44.0253 7.32475L43.1301 7.1586C42.0226 6.94635 41.3489 6.208 41.3489 5.23895C41.3489 4.00215 42.438 3.13477 43.6931 3.13477C45.3267 3.13477 45.9451 4.11309 46.0835 4.87902L44.7729 5.2483Z" fill="#9E9E9E"/>
<path d="M50.3935 5.2483C50.3475 4.94374 50.098 4.42691 49.3045 4.42691C48.7599 4.42691 48.4093 4.76834 48.4093 5.12825C48.4093 5.4422 48.603 5.6728 49.0554 5.7559L49.9321 5.92205C51.178 6.1528 51.824 6.9557 51.824 7.8878C51.824 8.91235 50.966 9.95515 49.4059 9.95515C47.5971 9.95515 46.8219 8.78305 46.7295 7.8602L48.0677 7.53715C48.1232 8.1369 48.5292 8.6631 49.4244 8.6631C49.9966 8.6631 50.3475 8.38615 50.3475 7.98015C50.3475 7.6478 50.0795 7.40785 49.6459 7.32475L48.7507 7.1586C47.6432 6.94635 46.9696 6.208 46.9696 5.23895C46.9696 4.00215 48.0586 3.13477 49.3137 3.13477C50.9475 3.13477 51.5655 4.11309 51.704 4.87902L50.3935 5.2483Z" fill="#9E9E9E"/>
<path d="M34.7461 12.7807C34.7461 12.1469 35.2278 11.7168 35.7956 11.7168C36.4064 11.7168 36.676 12.1097 36.742 12.4022L36.3147 12.5369C36.2831 12.3965 36.1541 12.1584 35.7956 12.1584C35.5233 12.1584 35.2164 12.3534 35.2164 12.7807C35.2164 13.1622 35.4974 13.3829 35.8014 13.3829C36.1541 13.3829 36.2947 13.1478 36.3348 13.0014L36.7678 13.1248C36.7018 13.4059 36.4323 13.836 35.8014 13.836C35.2164 13.836 34.7461 13.4144 34.7461 12.7807Z" fill="#9E9E9E"/>
<path d="M38.0005 11.7168C38.5712 11.7168 39.0558 12.1325 39.0558 12.7779C39.0558 13.4202 38.5712 13.836 38.0005 13.836C37.4269 13.836 36.9424 13.4202 36.9424 12.7779C36.9424 12.1325 37.4269 11.7168 38.0005 11.7168ZM38.0005 13.3887C38.2815 13.3887 38.5855 13.1994 38.5855 12.7749C38.5855 12.3505 38.2815 12.1584 38.0005 12.1584C37.7166 12.1584 37.4126 12.3506 37.4126 12.7749C37.4128 13.1994 37.7166 13.3887 38.0005 13.3887Z" fill="#9E9E9E"/>
<path d="M41.2375 13.7934V12.4457L40.707 13.7935H40.34L39.8096 12.4629V13.7935H39.3794V11.7603H39.9702L40.5294 13.134L41.0598 11.7603H41.6821V13.7935H41.2375V13.7934Z" fill="#9E9E9E"/>
<path d="M42.5757 13.0622V13.7934H42.1226V11.7603H42.8884C43.3013 11.7603 43.5852 12.0327 43.5852 12.4114C43.5852 12.7956 43.3013 13.0623 42.8884 13.0623H42.5757V13.0622ZM42.8424 12.6722C43.0145 12.6722 43.1321 12.5718 43.1321 12.4141C43.1321 12.2506 43.0145 12.1531 42.8424 12.1531H42.5786V12.6722H42.8424Z" fill="#9E9E9E"/>
<path d="M43.8657 13.7934V11.7603H44.3188V13.3605H45.1963V13.7935H43.8657V13.7934Z" fill="#9E9E9E"/>
<path d="M45.4883 13.7934V11.7603H45.9471V13.7935H45.4883V13.7934Z" fill="#9E9E9E"/>
<path d="M47.6009 13.3806H46.8152L46.6689 13.7935H46.1928L46.9585 11.7603H47.4833L48.2405 13.7935H47.7473L47.6009 13.3806ZM46.9641 12.9676H47.4575L47.2137 12.265L46.9641 12.9676Z" fill="#9E9E9E"/>
<path d="M49.7779 13.7934L48.9406 12.4571V13.7934H48.4902V11.7603H49.0409L49.8036 12.9963V11.7603H50.257V13.7935H49.7779V13.7934Z" fill="#9E9E9E"/>
<path d="M51.6065 12.1933V13.7935H51.1535V12.1933H50.5285V11.7603H52.2345V12.1933H51.6065Z" fill="#9E9E9E"/>
</svg>
