<svg width="103" height="25" viewBox="0 0 103 25" fill="none" xmlns="http://www.w3.org/2000/svg">
<path fill-rule="evenodd" clip-rule="evenodd" d="M35.964 18.4464C35.964 18.7795 35.7636 18.8674 35.7636 19.4908C35.7636 20.4254 36.3454 21.4155 38.2175 21.4155C39.4286 21.4155 40.3794 20.8395 40.3794 19.8043C40.3794 18.4059 38.9827 17.9305 37.5973 17.137C36.23 16.354 34.874 15.2633 34.874 12.6747C34.874 9.66619 37.5452 7.85486 41.2521 7.85371C42.7699 7.85371 43.8214 8.11395 44.9736 8.86C45.7637 7.11344 47.7264 5.86888 49.9459 5.86888C53.3823 5.86888 54.8865 8.09082 54.8865 9.93222C54.8865 12.5347 52.1237 16.93 52.1237 19.3069C52.1237 19.8471 52.5447 20.1432 52.9726 20.1444C55.5 20.1444 58.2244 13.4508 58.3682 8.70154C58.3709 8.52676 58.4301 8.35781 58.5365 8.22099C58.643 8.08417 58.7907 7.98716 58.9567 7.94508C59.1865 7.88494 59.4774 7.85255 59.817 7.85255C61.2295 7.85255 62.7338 8.64255 62.7179 10.7141C62.6896 14.4281 60.1294 17.7443 60.1294 19.5487C60.1294 20.0171 60.5357 20.5203 61.3224 20.5203C63.9687 20.5203 66.0139 14.2142 66.0139 9.24863C66.0139 8.73392 66.538 8.32794 67.757 8.32794C69.3643 8.32794 70.478 9.27639 70.3807 11.7817C70.512 11.5816 72.6105 7.85371 75.8227 7.85371C77.9223 7.85371 78.8074 9.19659 78.8074 10.9142C78.8074 10.9142 80.1702 7.85371 83.7911 7.85371C85.8895 7.85371 87.0373 9.14338 87.0384 11.2485C87.0384 14.5565 84.0865 18.1561 84.0865 19.7927C84.0865 20.3294 84.4487 20.5295 84.8743 20.5295C85.962 20.5295 87.5455 19.5174 88.1114 17.9536C88.5449 16.753 89.8613 13.2981 92.5438 13.2981C93.4629 13.2981 93.6768 13.6879 93.6768 14.0684C93.6768 14.8758 92.8324 15.1129 92.8324 17.993C92.8324 20.1617 93.4912 21.1009 94.5393 21.1009C96.0062 21.1009 98.2326 17.9675 98.2326 14.0719C98.2326 12.4028 97.2988 10.8275 94.9502 10.8275C93.2003 10.8275 92.76 11.3734 92.0526 11.3734C91.8194 11.3734 91.3395 11.2115 91.3395 10.6482C91.3395 9.52855 94.0775 7.85371 97.1935 7.85371C101.75 7.85371 103 11.9436 103 14.2882C103 20.2565 98.0673 24.9988 93.8058 24.9988C91.0769 24.9988 89.6587 23.6803 88.9275 22.2113L88.9252 22.2148C87.6575 23.6085 85.3746 24.9988 82.795 24.9988C80.4351 24.9988 79.0904 23.9046 79.0904 21.7313C79.0904 18.9553 81.9246 14.5242 81.9246 13.1871C81.9246 12.8528 81.8578 12.6862 81.5624 12.6862C79.0972 12.6862 75.9144 19.352 75.4356 23.7092C75.413 23.9127 75.224 24.9988 73.9212 24.9988C72.4452 24.9988 71.0066 24.0712 71.0066 22.032C71.0066 19.2237 73.9551 14.4906 73.954 13.1859C73.954 12.8852 73.8555 12.6862 73.5284 12.6862C72.0875 12.6862 70.4973 15.0296 69.336 17.8461C68.5391 19.7777 67.9494 21.9314 67.7366 23.7045C67.6948 24.0596 67.4243 25 66.2165 25C64.7383 25 63.8736 24.1822 63.4401 23.1563C62.3637 24.1024 61.0292 24.9988 59.5691 24.9988C56.8786 24.9988 55.9132 23.6953 55.8135 22.2911C55.8135 22.2911 54.3455 24.9988 50.8039 24.9988C49.071 24.9988 47.3992 23.5449 47.3992 20.4705C47.3992 17.0167 49.3449 14.4501 50.0693 11.311C50.2866 10.2561 49.4423 9.65346 48.4938 9.65346C47.2804 9.65346 46.6816 10.5129 46.6816 11.9078C46.6816 13.4045 45.8599 14.5935 43.9154 14.5935C43.8218 14.5942 43.729 14.5758 43.6425 14.5395C43.5559 14.5033 43.4772 14.4498 43.411 14.3822C43.3448 14.3147 43.2923 14.2344 43.2567 14.146C43.2211 14.0575 43.203 13.9628 43.2034 13.8672C43.2034 13.674 43.2657 13.4739 43.2657 12.9765C43.2657 11.7389 42.2843 11.0357 41.0687 11.0357C39.9538 11.0357 39.4298 11.6059 39.4298 12.4757C39.4298 13.9597 40.9261 14.4709 42.3919 15.2147C43.7988 15.9283 45.1763 16.8548 45.1763 19.0582C45.1763 22.8694 41.9018 24.9988 37.8372 24.9988C35.7659 24.9988 34.2549 24.5339 33.3901 23.5114C32.3824 24.4814 31.046 25.0146 29.6617 24.9988C26.677 24.9988 26.5706 22.3617 26.5706 22.3617C26.5706 22.3617 25.1671 24.9988 20.9362 24.9988C17.4715 24.9988 16.7324 22.2078 16.7324 22.2078C15.0006 23.7763 12.4019 24.9988 8.83763 24.9988C3.01077 24.9988 0 21.3531 0 15.7537C0 9.77723 5.05945 0 12.9859 0C17.2395 0 19.4195 2.55621 19.4195 5.412C19.4195 8.03877 17.4002 10.9096 14.0284 10.9096C12.2434 10.9096 11.7533 10.2838 11.7533 9.84547C11.7533 9.01962 13.7918 8.50953 13.7918 6.18465C13.7918 4.97594 13.0425 4.11423 11.9967 4.11423C9.08098 4.11423 5.18962 10.1115 5.18962 14.9521C5.18962 18.8732 6.94175 20.9667 10.3351 20.9667C12.3781 20.9667 15.261 19.4284 15.9967 17.2203C17.1172 13.8521 19.7737 7.85139 27.0879 7.85139C30.7529 7.85139 32.0341 9.96461 32.0341 10.9258C32.0341 11.1918 31.8338 11.651 31.3211 11.651C30.8128 11.651 30.0839 11.0137 27.9255 11.0137C22.952 11.0137 20.7834 15.1372 20.7834 18.1214C20.7834 19.8679 21.4104 20.7111 22.4483 20.7111C24.5581 20.7111 24.8739 18.798 25.7149 16.0209C26.1801 14.4837 27.2656 13.2993 28.9894 13.2993C30.6985 13.2993 30.6872 14.0684 30.6849 14.191C30.6827 14.3969 30.5978 14.6664 30.3941 15.0863C29.7908 16.3309 29.5135 18.0543 29.5135 18.8211C29.5135 19.5591 29.7976 20.6903 31.0788 20.6903C32.8219 20.6903 32.8479 17.72 35.2509 17.72C35.7455 17.72 35.964 18.1375 35.964 18.4464" fill="#0CD0CD"/>
</svg>
