<svg width="177" height="39" viewBox="0 0 177 39" fill="none" xmlns="http://www.w3.org/2000/svg">
<path d="M12.5757 31.1988C11.7801 31.1988 10.9845 30.7567 10.5425 30.0494L0.641481 12.988C0.0226674 11.8386 0.376271 10.4242 1.5255 9.71703C2.67472 9.09819 4.08915 9.45179 4.79637 10.6011L14.6974 27.5742C15.3162 28.7234 14.9626 30.138 13.8133 30.8452C13.3713 31.1103 13.0177 31.1988 12.5757 31.1988Z" fill="#3D3D3D"/>
<path d="M37.5055 21.9159C37.5055 20.6783 37.0634 19.5291 36.3562 18.2914C35.2954 16.3467 34.0578 15.109 32.3782 14.3134C30.9638 13.6062 29.3725 13.2526 27.7812 13.4293C28.3116 12.2801 28.6653 11.131 28.7536 9.89328C28.9305 8.12526 28.3116 6.53402 27.2508 4.58918C26.5436 3.35156 25.6595 2.46754 24.6871 1.76031C23.6263 1.1415 22.5655 0.699504 21.3279 0.611095C20.0903 0.522687 18.8526 0.611095 17.5267 0.876305C17.0846 0.964698 16.6426 1.1415 16.2006 1.22991C16.0237 1.31832 15.847 1.40671 15.6701 1.49512C14.8746 1.76031 12.8413 2.90955 12.1341 3.35156L8.68642 5.3848H8.59803C7.3604 6.18042 6.91839 7.77166 7.6256 9.09771C8.15602 9.98164 9.04004 10.4238 9.92405 10.4238C10.3661 10.4238 10.8081 10.3352 11.2501 10.0702H11.3385L16.9078 6.88762C17.4382 6.62243 17.9686 6.44561 18.499 6.35722C19.0294 6.26881 19.5599 6.35722 20.0903 6.44561C20.6207 6.62243 21.0627 6.88762 21.593 7.24118C22.0352 7.59478 22.3888 8.0369 22.7424 8.56723C23.0076 9.09771 23.2727 9.62804 23.3612 10.2469C23.4496 10.8657 23.4496 11.3961 23.3612 11.9265C23.2727 12.457 23.096 12.899 22.7424 13.341C22.4771 13.7829 22.0352 14.1365 21.593 14.4018L18.2339 16.435L16.8195 17.2306L15.9354 17.7611C14.6977 18.4683 14.3441 19.971 15.0513 21.2087C15.4934 22.0043 16.3773 22.4464 17.2614 22.4464C17.7034 22.4464 18.1454 22.3579 18.499 22.0927L20.3555 21.0319L25.1292 18.4683C25.6595 18.203 26.1017 18.0263 26.632 18.0263C27.1625 18.0263 27.6928 18.1147 28.1348 18.2914C28.6653 18.4683 29.1072 18.7335 29.5493 19.0871C29.9913 19.4407 30.3449 19.8827 30.6985 20.4132C30.9638 20.9435 31.1405 21.474 31.2288 22.0043C31.3174 22.5348 31.3174 23.1536 31.1405 23.684C31.0521 24.2144 30.7869 24.6564 30.4333 25.1867C30.0797 25.6289 29.6377 25.9825 29.1072 26.3361L20.8858 31.0213H20.4439L18.9411 31.9053L16.0237 33.4966C14.7862 34.2038 14.2557 35.795 14.9629 37.0327C15.4049 37.9166 16.289 38.4471 17.2614 38.4471C17.7034 38.4471 18.1454 38.3587 18.499 38.0935L25.5712 34.2922L31.3174 31.1981C32.5549 30.4909 33.7042 29.6068 34.6765 28.6344C35.649 27.6621 36.3562 26.6013 36.7983 25.5405C37.3286 24.3028 37.5938 23.1536 37.5055 21.9159Z" fill="#3D3D3D"/>
<path d="M110.7 26.511C110.17 26.511 109.551 26.5109 109.109 26.0688C108.667 25.6269 108.667 25.008 108.667 24.4777V11.2173C108.667 10.687 108.667 10.0682 109.109 9.6262C109.551 9.18408 110.17 9.18408 110.7 9.18408H115.651C119.098 9.18408 121.043 11.129 121.043 14.0463C121.043 15.9911 119.805 17.2288 118.833 17.6707C119.894 18.2012 121.22 19.262 121.22 21.5603C121.22 24.8313 119.01 26.5993 115.916 26.5993H110.7V26.511ZM112.115 12.1898V16.1679H115.474C116.888 16.1679 117.684 15.3722 117.684 14.1347C117.684 12.897 116.888 12.1014 115.474 12.1014H112.115V12.1898ZM115.651 23.5052C117.153 23.5052 117.949 22.5328 117.949 21.3836C117.949 20.2345 117.242 19.262 115.651 19.262H112.115V23.5052H115.651Z" fill="#3D3D3D"/>
<path d="M126.613 21.1196C126.613 22.7993 127.585 23.9486 129.442 23.9486C130.237 23.9486 131.033 23.7717 131.652 23.2414C132.182 22.8878 132.447 22.7993 132.801 22.7993C133.42 22.7993 134.039 23.4181 134.039 24.1253C134.039 24.7442 133.508 25.2747 132.801 25.7166C131.917 26.3355 130.768 26.6006 129.353 26.6006C126.348 26.6006 123.43 25.2747 123.43 20.0588C123.43 15.9039 125.64 13.5171 129 13.5171C132.447 13.5171 134.392 15.9925 134.569 19.1749C134.569 19.7052 134.481 20.2357 134.127 20.5893C133.685 21.0313 133.243 21.0313 132.712 21.0313H126.613V21.1196ZM131.21 17.5836C130.856 16.788 130.149 16.2576 129.088 16.2576C128.027 16.2576 127.32 16.788 126.966 17.5836C126.79 18.0256 126.701 18.3793 126.701 18.998H131.563C131.475 18.3793 131.386 18.0256 131.21 17.5836Z" fill="#3D3D3D"/>
<path d="M137.663 16.6115H137.309C136.69 16.6115 136.514 16.6115 136.248 16.4348C135.895 16.2579 135.63 15.9043 135.63 15.374C135.63 14.9318 135.806 14.4899 136.248 14.3132C136.514 14.1363 136.69 14.1363 137.309 14.1363H137.663V12.4566C137.663 11.6611 137.663 11.3958 137.84 11.0422C138.105 10.6002 138.547 10.2466 139.254 10.2466C139.873 10.2466 140.403 10.5119 140.668 11.0422C140.845 11.3958 140.845 11.6611 140.845 12.4566V14.1363H141.818C142.437 14.1363 142.613 14.1363 142.879 14.3132C143.232 14.4899 143.497 14.8435 143.497 15.374C143.497 15.8159 143.32 16.2579 142.879 16.4348C142.613 16.6115 142.437 16.6115 141.818 16.6115H140.845V22.7113C140.845 23.3301 141.022 23.7721 141.906 23.8604C142.348 23.8604 142.613 23.949 142.879 24.0373C143.232 24.214 143.497 24.5676 143.497 25.1865C143.497 25.717 143.232 26.1589 142.879 26.3358C142.613 26.5125 142.171 26.5125 141.552 26.5125H141.376C138.724 26.5125 137.663 24.7445 137.663 22.8882V16.6115Z" fill="#3D3D3D"/>
<path d="M146.239 16.6115H145.886C145.267 16.6115 145.09 16.6115 144.825 16.4348C144.471 16.2579 144.206 15.9043 144.206 15.374C144.206 14.9318 144.383 14.4899 144.825 14.3132C145.09 14.1363 145.267 14.1363 145.886 14.1363H146.239V12.4566C146.239 11.6611 146.239 11.3958 146.416 11.0422C146.681 10.6002 147.124 10.2466 147.831 10.2466C148.45 10.2466 148.98 10.5119 149.245 11.0422C149.422 11.3958 149.422 11.6611 149.422 12.4566V14.1363H150.394C151.013 14.1363 151.19 14.1363 151.455 14.3132C151.809 14.4899 152.074 14.8435 152.074 15.374C152.074 15.8159 151.897 16.2579 151.455 16.4348C151.19 16.6115 151.013 16.6115 150.394 16.6115H149.422V22.7113C149.422 23.3301 149.599 23.7721 150.483 23.8604C150.925 23.8604 151.19 23.949 151.455 24.0373C151.809 24.214 152.074 24.5676 152.074 25.1865C152.074 25.717 151.809 26.1589 151.455 26.3358C151.19 26.5125 150.748 26.5125 150.129 26.5125H149.952C147.3 26.5125 146.239 24.7445 146.239 22.8882V16.6115Z" fill="#3D3D3D"/>
<path d="M156.495 21.1196C156.495 22.7993 157.467 23.9486 159.322 23.9486C160.119 23.9486 160.914 23.7717 161.533 23.2414C162.063 22.8878 162.328 22.7993 162.681 22.7993C163.302 22.7993 163.92 23.4181 163.92 24.1253C163.92 24.7442 163.39 25.2747 162.681 25.7166C161.798 26.3355 160.649 26.6006 159.234 26.6006C156.228 26.6006 153.311 25.2747 153.311 20.0588C153.311 15.9039 155.521 13.5171 158.88 13.5171C162.328 13.5171 164.274 15.9925 164.45 19.1749C164.45 19.7052 164.362 20.2357 164.008 20.5893C163.567 21.0313 163.123 21.0313 162.593 21.0313H156.495V21.1196ZM161.091 17.5836C160.738 16.788 160.031 16.2576 158.969 16.2576C157.908 16.2576 157.202 16.788 156.848 17.5836C156.671 18.0256 156.583 18.3793 156.583 18.998H161.444C161.268 18.3793 161.268 18.0256 161.091 17.5836Z" fill="#3D3D3D"/>
<path d="M173.025 13.6053C173.998 13.6053 174.617 13.7822 175.235 14.2242C175.677 14.5778 176.03 15.0199 176.03 15.5502C176.03 15.9922 175.854 16.4343 175.589 16.6994C175.324 16.9647 174.882 17.1415 174.528 17.1415C174.175 17.1415 173.91 17.053 173.466 16.7879C173.113 16.6111 172.671 16.4343 172.229 16.4343C171.169 16.4343 170.107 17.1415 170.107 18.7327V24.3905C170.107 25.186 170.107 25.4513 169.93 25.8049C169.665 26.2469 169.223 26.6005 168.517 26.6005C167.81 26.6005 167.368 26.3352 167.103 25.8049C166.926 25.4513 166.926 25.186 166.926 24.3905V15.8155C166.926 15.0199 166.926 14.7547 167.191 14.4011C167.456 13.9591 167.986 13.6939 168.517 13.6939C168.958 13.6939 169.312 13.8706 169.489 14.0475C169.754 14.3127 169.93 14.5778 169.93 15.0199C170.639 14.3127 171.787 13.6053 173.025 13.6053Z" fill="#3D3D3D"/>
<path d="M56.0695 21.9163L53.2405 16.347V24.1262C53.2405 24.922 53.2405 25.187 52.9754 25.6292C52.7101 26.0711 52.1797 26.4247 51.4725 26.4247C50.7652 26.4247 50.2349 26.0711 49.9697 25.6292C49.7928 25.187 49.7044 24.922 49.7044 24.1262V11.1311C49.7044 10.4239 49.7928 9.89359 50.2349 9.53999C50.5 9.27474 50.9421 9.09802 51.3841 9.09802C51.8261 9.09802 52.0913 9.18638 52.3565 9.36311C52.7101 9.53999 52.9754 9.98195 53.2405 10.4239L57.5722 18.6453L61.904 10.4239C62.0807 9.98195 62.4343 9.62835 62.7879 9.36311C63.0532 9.18638 63.4068 9.09802 63.7604 9.09802C64.2023 9.09802 64.5559 9.27474 64.9095 9.53999C65.3516 9.98195 65.44 10.4239 65.44 11.1311V24.2146C65.44 25.0103 65.44 25.2756 65.1748 25.7175C64.9095 26.1595 64.3792 26.5131 63.672 26.5131C62.9648 26.5131 62.4343 26.1595 62.1691 25.7175C61.9923 25.2756 61.904 25.0103 61.904 24.2146V16.4353L59.3402 21.9163C58.8983 22.7118 58.5447 23.0654 57.7491 23.0654C56.9534 23.0654 56.5114 22.8002 56.0695 21.9163Z" fill="#3D3D3D"/>
<path d="M63.8492 26.604C63.142 26.604 62.5232 26.2504 62.2579 25.7201C61.9927 25.2779 61.9927 25.0129 61.9927 24.2171V16.9682L59.4291 22.0072C58.9871 22.8027 58.6335 23.2447 57.6611 23.2447C56.777 23.2447 56.335 22.8027 55.8931 22.0072L53.3293 16.9682V24.2171C53.3293 25.0129 53.3293 25.2779 53.0642 25.7201C52.799 26.2504 52.1802 26.604 51.473 26.604C50.7657 26.604 50.1469 26.2504 49.8817 25.7201C49.6166 25.2779 49.6166 24.9243 49.6166 24.2171V11.1337C49.6166 10.4265 49.7049 9.89614 50.1469 9.36565C50.5005 9.01205 50.8541 8.83533 51.3846 8.83533C51.8266 8.83533 52.1802 8.92369 52.4454 9.10041C52.8874 9.36565 53.1526 9.89614 53.3293 10.1612L57.4842 18.1175L61.6391 10.1612C61.816 9.89614 62.0812 9.36565 62.5232 9.10041C62.7884 8.92369 63.142 8.83533 63.584 8.83533C64.1145 8.83533 64.4681 9.01205 64.8217 9.36565C65.2636 9.80762 65.352 10.3381 65.352 11.1337V24.2171C65.352 25.0129 65.352 25.2779 65.0867 25.7201C65.1753 26.2504 64.5564 26.604 63.8492 26.604ZM62.2579 15.819V24.2171C62.2579 25.0129 62.2579 25.278 62.4348 25.6316C62.7 26.0737 63.2304 26.3388 63.7609 26.3388C64.3795 26.3388 64.8217 26.0737 65.0867 25.6316C65.2636 25.278 65.2636 25.0129 65.2636 24.2171V11.1337C65.2636 10.4265 65.1753 9.9845 64.8217 9.63089C64.5564 9.36565 64.2028 9.18893 63.7609 9.18893C63.4073 9.18893 63.142 9.27729 62.7884 9.45401C62.5232 9.6309 62.2579 9.9845 61.9927 10.4265L57.5727 18.8247L53.1526 10.4265C52.8874 9.9845 52.6221 9.6309 52.3569 9.45401C52.0918 9.27729 51.8266 9.18893 51.3846 9.18893C50.9425 9.18893 50.5889 9.36565 50.3238 9.63089C49.9702 9.9845 49.8817 10.5148 49.8817 11.1337V24.2171C49.8817 25.0129 49.8817 25.278 50.0585 25.6316C50.3238 26.0737 50.8541 26.3388 51.3846 26.3388C52.0033 26.3388 52.4454 26.0737 52.7106 25.6316C53.1526 25.278 53.1526 25.0129 53.1526 24.2171V15.819L56.2467 21.8303C56.6886 22.7144 57.0422 22.9796 57.7494 22.9796C58.4567 22.9796 58.8103 22.7144 59.2524 21.8303L62.2579 15.819Z" fill="#3D3D3D"/>
<path d="M73.0446 26.5128C71.807 26.5128 70.7462 26.0709 70.039 25.3637C68.9782 24.3027 68.713 23.1535 68.713 21.7391V15.7279C68.713 14.9321 68.713 14.6669 68.8897 14.3133C69.1549 13.8713 69.5969 13.6061 70.2157 13.6061C70.8346 13.6061 71.3651 13.8713 71.5418 14.3133C71.7187 14.6669 71.7187 14.9321 71.7187 15.7279V21.2971C71.7187 22.9768 72.7795 23.5955 73.8403 23.5955C74.8127 23.5955 75.9619 23.0652 75.9619 21.2971V15.7279C75.9619 14.9321 75.9619 14.6669 76.1386 14.3133C76.4039 13.8713 76.846 13.6061 77.4647 13.6061C78.0835 13.6061 78.614 13.8713 78.7907 14.3133C78.9676 14.6669 78.9676 14.9321 78.9676 15.7279V24.2143C78.9676 25.0099 78.9676 25.2751 78.7024 25.6287C78.4371 26.0709 77.9068 26.3359 77.3763 26.3359C76.9344 26.3359 76.5808 26.1592 76.4039 25.9823C76.1386 25.7173 76.0503 25.452 75.9619 25.0984C75.4314 26.0709 74.1939 26.5128 73.0446 26.5128Z" fill="#3D3D3D"/>
<path d="M73.0435 26.6906C71.806 26.6906 70.7452 26.2487 69.9495 25.5415C69.0655 24.6575 68.6236 23.5082 68.6236 21.8286V15.8173C68.6236 15.0217 68.6234 14.7565 68.8003 14.3144C69.0655 13.784 69.5959 13.5188 70.3031 13.5188C71.0103 13.5188 71.5408 13.784 71.806 14.3144C71.9827 14.6681 71.9827 15.0217 71.9827 15.8173V21.3866C71.9827 23.3315 73.4856 23.5082 73.9276 23.5082C74.3696 23.5082 75.8725 23.3315 75.8725 21.3866V15.8173C75.8725 15.0217 75.8725 14.7565 76.0492 14.3144C76.3145 13.784 76.8448 13.5188 77.552 13.5188C78.2594 13.5188 78.7897 13.784 79.0549 14.3144C79.2317 14.6681 79.2317 15.0217 79.2317 15.8173V24.3038C79.2317 25.0995 79.2317 25.3647 78.9666 25.8067C78.7013 26.2487 78.1709 26.6023 77.4636 26.6023C77.0217 26.6023 76.6681 26.4256 76.4028 26.1603C76.1376 25.9834 76.0492 25.7183 75.9609 25.4531C75.342 26.2487 74.1929 26.6906 73.0435 26.6906ZM70.3916 13.784C69.7727 13.784 69.3308 14.0493 69.1539 14.4912C68.9772 14.7565 68.9772 15.1101 68.9772 15.8173V21.8286C68.9772 23.4198 69.3308 24.4807 70.2147 25.2762C70.9219 25.9834 71.8944 26.337 73.132 26.337C74.2812 26.337 75.4304 25.8951 76.2261 25.0111L76.4028 24.8343L76.4912 25.0995C76.5797 25.5415 76.6681 25.7183 76.9333 25.9834C77.1984 26.1603 77.4636 26.337 77.8172 26.337C78.3477 26.337 78.8781 26.0719 79.0549 25.7183C79.2317 25.3647 79.2317 25.1879 79.2317 24.3923V15.9057C79.2317 15.1101 79.2317 14.8449 79.0549 14.5796C78.8781 14.1376 78.3477 13.8724 77.8172 13.8724C77.2869 13.8724 76.7564 14.1376 76.5797 14.5796C76.4028 14.8449 76.4028 15.1985 76.4028 15.9057V21.4749C76.4028 23.243 75.2537 23.8618 74.1929 23.8618C73.132 23.8618 71.9827 23.243 71.9827 21.4749V15.9057C71.9827 15.1101 71.9827 14.8449 71.806 14.5796C71.3639 14.0493 70.9219 13.784 70.3916 13.784Z" fill="#3D3D3D"/>
<path d="M89.9282 14.2258C90.6354 14.5794 91.431 15.1982 91.431 15.9938C91.431 16.4358 91.2543 16.701 90.989 17.0546C90.8122 17.3199 90.3702 17.4966 90.0166 17.4966C89.663 17.4966 89.3977 17.4082 88.9558 17.0546C88.4253 16.701 88.0717 16.5241 87.453 16.5241C86.7456 16.5241 86.127 16.7894 85.6848 17.3199C85.2429 17.9387 84.9776 18.7343 84.9776 20.0603C84.9776 21.3864 85.1545 22.2703 85.6848 22.8891C86.127 23.4195 86.7456 23.6847 87.453 23.6847C88.0717 23.6847 88.4253 23.508 88.9558 23.1544C89.3977 22.8008 89.663 22.7123 90.0166 22.7123C90.3702 22.7123 90.7238 22.8891 90.989 23.1544C91.2543 23.4195 91.431 23.7732 91.431 24.2152C91.431 25.0108 90.6354 25.6296 89.9282 25.9832C89.221 26.4252 88.4253 26.6021 87.453 26.6021C84.9776 26.6021 81.7952 25.276 81.7952 20.1487C81.7952 15.0214 84.8893 13.6953 87.453 13.6953C88.4253 13.6069 89.1325 13.7837 89.9282 14.2258Z" fill="#3D3D3D"/>
<path d="M87.3647 26.6895C86.3039 26.6895 84.8011 26.4245 83.475 25.3637C82.2374 24.2143 81.5302 22.4463 81.5302 20.1478C81.5302 17.761 82.149 16.0815 83.475 14.9321C84.7127 13.783 86.3039 13.6061 87.3647 13.6061C88.3371 13.6061 89.1327 13.783 89.9284 14.2249C90.6356 14.5785 91.5196 15.1974 91.5196 16.0815C91.5196 16.5234 91.3428 16.877 91.0776 17.2306C90.8124 17.4959 90.3704 17.6726 90.0168 17.6726C89.6632 17.6726 89.3096 17.5842 88.8676 17.2306C88.3371 16.877 87.9835 16.7001 87.4532 16.7001C86.746 16.7001 86.2155 16.9654 85.7735 17.4959C85.3314 18.1146 85.0663 18.9103 85.0663 20.1478C85.0663 21.4739 85.2431 22.2696 85.7735 22.8883C86.2155 23.4188 86.746 23.684 87.4532 23.684C87.9835 23.684 88.4255 23.5071 88.8676 23.1535C89.3096 22.8883 89.5748 22.6232 90.0168 22.6232C90.3704 22.6232 90.8124 22.7999 91.0776 23.0652C91.4312 23.4188 91.5196 23.7724 91.5196 24.2143C91.5196 24.9215 90.9892 25.5404 89.9284 26.1592C89.1327 26.5128 88.4255 26.6895 87.3647 26.6895ZM87.4532 13.783C85.7735 13.783 81.9723 14.4018 81.9723 20.0595C81.9723 25.8056 85.7735 26.4245 87.4532 26.4245C88.4255 26.4245 89.1327 26.2476 89.8401 25.8056C90.8124 25.2751 91.2545 24.7448 91.2545 24.126C91.2545 23.7724 91.0776 23.5071 90.8124 23.1535C90.6356 22.9768 90.282 22.7999 89.9284 22.7999C89.5748 22.7999 89.3096 22.8883 88.956 23.2419C88.4255 23.684 87.9835 23.7724 87.3647 23.7724C86.5691 23.7724 85.9503 23.5071 85.5083 22.8883C84.9778 22.2696 84.8011 21.3855 84.8011 20.0595C84.8011 18.7334 85.0663 17.8495 85.5083 17.2306C85.9503 16.7001 86.5691 16.3465 87.3647 16.3465C88.0719 16.3465 88.4255 16.5234 88.956 16.877C89.3979 17.1423 89.6632 17.319 89.9284 17.319C90.282 17.319 90.5473 17.1423 90.8124 16.9654C91.0776 16.7001 91.2545 16.3465 91.2545 15.9929C91.2545 15.1974 90.3704 14.5785 89.8401 14.3133C89.1327 13.9597 88.4255 13.783 87.4532 13.783Z" fill="#3D3D3D"/>
<path d="M103.897 25.7175C103.632 26.1595 103.189 26.4247 102.571 26.4247C101.952 26.4247 101.421 26.1595 101.245 25.7175C101.068 25.3639 101.068 25.0987 101.068 24.3031V18.7338C101.068 17.0542 100.007 16.4353 98.9462 16.4353C97.8854 16.4353 96.8246 16.9657 96.8246 18.7338V24.3031C96.8246 25.0987 96.8246 25.3639 96.6477 25.7175C96.3826 26.1595 95.9405 26.4247 95.3218 26.4247C94.7029 26.4247 94.1724 26.1595 93.9957 25.7175C93.8188 25.3639 93.8188 25.0987 93.8188 24.3031V11.2196C93.8188 10.4239 93.8188 10.1588 93.9957 9.80523C94.261 9.36311 94.7029 9.09802 95.3218 9.09802C95.9405 9.09802 96.471 9.36311 96.6477 9.80523C96.8246 10.1588 96.8246 10.4239 96.8246 11.2196V14.9326C97.6201 14.1368 98.5042 13.6065 99.9186 13.6065C101.156 13.6065 102.217 14.0485 102.924 14.7557C103.985 15.8165 104.25 16.9657 104.25 18.3802V24.3915C104.162 25.0987 104.073 25.3639 103.897 25.7175Z" fill="#3D3D3D"/>
<path d="M102.57 26.6019C101.863 26.6019 101.333 26.3366 101.067 25.8061C100.891 25.4525 100.891 25.0989 100.891 24.3034V18.7341C100.891 16.7892 99.3878 16.6125 98.9458 16.6125C98.5037 16.6125 97.0009 16.7892 97.0009 18.7341V24.3034C97.0009 25.0989 97.0009 25.3642 96.824 25.8061C96.5589 26.3366 96.0285 26.6019 95.3213 26.6019C94.614 26.6019 94.0836 26.3366 93.8185 25.8061C93.6416 25.4525 93.6416 25.0989 93.6416 24.3034V11.2199C93.6416 10.4243 93.6416 10.1591 93.8185 9.71711C94.0836 9.18663 94.614 8.92139 95.3213 8.92139C96.0285 8.92139 96.5589 9.18663 96.824 9.71711C97.0009 10.0707 97.0009 10.4243 97.0009 11.2199V14.6676C97.8848 13.872 98.7689 13.5184 99.9181 13.5184C101.156 13.5184 102.217 13.9603 103.012 14.6676C103.896 15.5516 104.338 16.7008 104.338 18.3805V24.3917C104.338 25.1874 104.338 25.4525 104.161 25.8946C103.808 26.3366 103.277 26.6019 102.57 26.6019ZM98.9458 16.3472C100.007 16.3472 101.156 16.9661 101.156 18.7341V24.3034C101.156 25.0989 101.156 25.3642 101.333 25.6294C101.509 26.0714 102.04 26.3366 102.57 26.3366C103.101 26.3366 103.631 26.0714 103.808 25.6294C103.985 25.3642 103.985 25.0106 103.985 24.3034V18.2921C103.985 16.7008 103.631 15.64 102.747 14.8444C102.04 14.1372 101.067 13.7836 99.8297 13.7836C98.5922 13.7836 97.7081 14.1372 96.824 15.0212L96.5589 15.2864V11.2199C96.5589 10.4243 96.5589 10.1591 96.3821 9.89384C96.2053 9.45187 95.6749 9.18663 95.1445 9.18663C94.5257 9.18663 94.0836 9.45187 93.9068 9.89384C93.73 10.1591 93.73 10.5127 93.73 11.2199V24.3917C93.73 25.1874 93.73 25.4525 93.9068 25.7178C94.0836 26.1599 94.614 26.425 95.1445 26.425C95.6749 26.425 96.2053 26.1599 96.3821 25.7178C96.5589 25.4525 96.5589 25.0989 96.5589 24.3917V18.8224C96.6473 16.9661 97.7965 16.3472 98.9458 16.3472Z" fill="#3D3D3D"/>
</svg>
