<svg width="118" height="20" viewBox="0 0 118 20" fill="none" xmlns="http://www.w3.org/2000/svg">
<path fill-rule="evenodd" clip-rule="evenodd" d="M100.694 0H108.464C111.43 0 113.692 0.510616 115.188 1.52062C116.633 2.494 117.333 3.88615 117.333 5.77785C117.333 7.40492 116.912 8.75662 116.076 9.81077C115.243 10.854 114.044 11.5482 112.516 11.8714L111.819 12.022L114.866 20H108.218L105.278 10.2369L103.463 20H40.8308L43.7237 4.53262H40.0022L37.1092 20H13.3058L8.90972 7.40862L6.64378 20H0L3.74722 0H10.699L15.2309 12.2571L17.5042 0H57.4621L56.6226 4.53262H50.2428L49.5902 8.03677H55.7352L55.0092 11.956H48.8531L48.2078 15.4637H58.4558L61.3488 0H68.0475L65.2866 14.6703H69.8698L72.6125 0H79.3185L76.5575 14.6703H81.2581L84.0008 0H96.8226L95.9866 4.53262H89.6729L89.0166 8.02938L95.1434 8.01477L94.4137 11.956H88.2832L87.6306 15.4637H97.8052L100.694 0ZM106.444 4.04769L105.432 9.41415H106.172H106.752C108.072 9.41415 109.04 9.19015 109.711 8.73092C110.213 8.382 110.807 7.70246 110.807 6.44631C110.807 5.40308 110.297 4.85585 109.865 4.57662C109.311 4.224 108.508 4.04769 107.408 4.04769H106.95H106.444ZM23.2129 4.53262L22.6043 8.00369H28.9182L28.1922 11.956H21.8123L21.156 15.4637H31.3271L33.362 4.53262H23.2129Z" fill="white"/>
</svg>
