<svg width="121" height="20" viewBox="0 0 121 20" fill="none" xmlns="http://www.w3.org/2000/svg">
<mask id="mask0" mask-type="alpha" maskUnits="userSpaceOnUse" x="15" y="5" width="10" height="15">
<path fill-rule="evenodd" clip-rule="evenodd" d="M18.0632 5.65942H21.8146C23.47 5.67348 24.31 6.55918 24.3375 8.31957V13.7379C24.3238 14.3658 24.0759 14.9068 23.5912 15.3609C23.1119 15.8374 22.5418 16.0813 21.8752 16.0954H18.3276V20H15.7027V8.42331C15.7193 7.52344 15.923 6.83672 16.3197 6.36859C16.529 6.17234 16.7907 6.00976 17.1074 5.87246C17.4352 5.72949 17.7547 5.65942 18.0632 5.65942ZM18.3276 12.6755C18.3413 13.1828 18.6168 13.4379 19.1539 13.4547H21.0268C21.2224 13.4547 21.3822 13.3818 21.5116 13.2388C21.6466 13.1295 21.7127 12.9894 21.7127 12.8184V8.93327C21.6989 8.5241 21.5005 8.31379 21.1178 8.29984H19.0741C18.5893 8.32784 18.3413 8.58849 18.3276 9.07624V12.6755Z" fill="white"/>
</mask>
<g mask="url(#mask0)">
<path fill-rule="evenodd" clip-rule="evenodd" d="M9.32917 26.4892H30.7112V-0.829834H9.32917V26.4892Z" fill="white"/>
</g>
<mask id="mask1" mask-type="alpha" maskUnits="userSpaceOnUse" x="26" y="5" width="10" height="12">
<path fill-rule="evenodd" clip-rule="evenodd" d="M26.4887 5.65942H32.4409C34.1761 5.68743 35.0575 6.506 35.085 8.12615V13.6482C35.0713 14.3462 34.8537 14.9236 34.4295 15.3805C33.9861 15.8543 33.4132 16.0954 32.7135 16.0954H29.1136C27.3646 16.0813 26.4777 15.2992 26.4502 13.7408V11.6104C26.4639 9.98178 27.3123 9.15765 28.9897 9.12681H32.4822V8.86899C32.496 8.47376 32.2591 8.28873 31.777 8.29995H26.4887V5.65942ZM29.2844 13.2894C29.4083 13.3987 29.5626 13.4547 29.7609 13.4547H31.777C32.2343 13.4547 32.4684 13.2809 32.4821 12.9306V12.1934C32.4821 11.7925 32.2397 11.5907 31.7578 11.5907H29.7609C29.4992 11.5907 29.3175 11.6299 29.2155 11.714C29.1219 11.8066 29.0751 11.9943 29.0751 12.2747V12.9306C29.0751 13.0819 29.1466 13.2025 29.2844 13.2894Z" fill="white"/>
</mask>
<g mask="url(#mask1)">
<path fill-rule="evenodd" clip-rule="evenodd" d="M20.0766 22.5817H41.4614V-0.829834H20.0766V22.5817Z" fill="white"/>
</g>
<mask id="mask2" mask-type="alpha" maskUnits="userSpaceOnUse" x="37" y="5" width="9" height="15">
<path fill-rule="evenodd" clip-rule="evenodd" d="M43.2022 5.65942V12.8017C43.2022 12.9727 43.1251 13.1157 42.968 13.239C42.8111 13.3819 42.6183 13.4548 42.398 13.4548H40.5443C40.0733 13.4548 39.8446 13.1773 39.8446 12.6167V5.65942H37.217V13.4548C37.217 13.8809 37.2776 14.2341 37.3988 14.5116C37.5117 14.8143 37.7017 15.1059 37.9634 15.3834C38.2389 15.6468 38.517 15.829 38.7925 15.9328C39.0514 16.0393 39.404 16.0954 39.8446 16.0954H43.2022V16.7204C43.2022 16.8803 43.1333 17.0204 42.9929 17.1437C42.8441 17.2755 42.6651 17.3484 42.4558 17.3623H37.217V20H43.3426C44.1057 19.9889 44.7005 19.7226 45.1385 19.2096C45.5682 18.691 45.7913 18.0099 45.8051 17.1577V5.65942H43.2022Z" fill="white"/>
</mask>
<g mask="url(#mask2)">
<path fill-rule="evenodd" clip-rule="evenodd" d="M30.8435 26.4892H52.1815V-0.829834H30.8435V26.4892Z" fill="white"/>
</g>
<mask id="mask3" mask-type="alpha" maskUnits="userSpaceOnUse" x="47" y="5" width="9" height="12">
<path fill-rule="evenodd" clip-rule="evenodd" d="M50.4566 5.65942C48.7792 5.68743 47.9281 6.4695 47.9007 8.00563V9.97338C47.9144 10.5704 48.1734 11.0806 48.6692 11.4926C49.1648 11.944 49.7516 12.1738 50.4402 12.1878H52.7566C52.9081 12.1878 53.0375 12.2859 53.1422 12.485C53.1835 12.569 53.2056 12.6448 53.2056 12.712V12.9503C53.1917 13.2726 52.9686 13.438 52.5417 13.4548H47.8649V16.0954H53.3542C53.7922 16.0954 54.1365 16.0477 54.3926 15.9524C54.6377 15.8486 54.883 15.6665 55.1198 15.403C55.6128 14.8648 55.869 14.3239 55.8827 13.7857V11.8571C55.869 11.232 55.6376 10.6909 55.1969 10.2369C54.7618 9.78836 54.2357 9.55571 53.6187 9.54448H51.3078C50.7541 9.54448 50.4759 9.37351 50.4759 9.03996V8.78486C50.4759 8.46253 50.7486 8.29995 51.2885 8.29995H55.8827V5.65942H50.4566Z" fill="white"/>
</mask>
<g mask="url(#mask3)">
<path fill-rule="evenodd" clip-rule="evenodd" d="M41.4913 22.5817H62.2591V-0.829834H41.4913V22.5817Z" fill="white"/>
</g>
<mask id="mask4" mask-type="alpha" maskUnits="userSpaceOnUse" x="57" y="5" width="10" height="12">
<path fill-rule="evenodd" clip-rule="evenodd" d="M57.7895 5.65942H63.7445C65.4769 5.68743 66.3555 6.506 66.3831 8.12615V13.6482C66.3694 14.3462 66.149 14.9236 65.7275 15.3805C65.2868 15.8543 64.7167 16.0954 64.0143 16.0954H60.4144C58.6655 16.0813 57.7758 15.2992 57.751 13.7408V11.6104C57.7647 9.98178 58.6104 9.15765 60.2932 9.12681H63.7857V8.86899C63.794 8.47376 63.5626 8.28873 63.0751 8.29995H57.7895V5.65942ZM60.588 13.2894C60.7092 13.3987 60.8661 13.4547 61.0617 13.4547H63.0807C63.5378 13.4547 63.7692 13.2809 63.7857 12.9306V12.1934C63.7857 11.7925 63.5433 11.5907 63.0586 11.5907H61.0617C60.7973 11.5907 60.6155 11.6299 60.5163 11.714C60.4227 11.8066 60.3731 11.9943 60.3731 12.2747V12.9306C60.3731 13.0819 60.4447 13.2025 60.588 13.2894Z" fill="white"/>
</mask>
<g mask="url(#mask4)">
<path fill-rule="evenodd" clip-rule="evenodd" d="M51.3774 22.5817H72.7595V-0.829834H51.3774V22.5817Z" fill="white"/>
</g>
<mask id="mask5" mask-type="alpha" maskUnits="userSpaceOnUse" x="68" y="1" width="6" height="16">
<path fill-rule="evenodd" clip-rule="evenodd" d="M71.335 1.77734C70.5059 1.78857 69.8393 2.00999 69.327 2.44728C68.8009 2.87619 68.531 3.44805 68.5173 4.16278V16.0956H71.1449V8.30293H73.0013V5.65968H71.1449V5.10187C71.1532 4.60007 71.4397 4.33942 71.9933 4.32819H73.0013V1.77734H71.335Z" fill="white"/>
</mask>
<g mask="url(#mask5)">
<path fill-rule="evenodd" clip-rule="evenodd" d="M62.141 22.5846H79.3749V-4.71191H62.141V22.5846Z" fill="white"/>
</g>
<mask id="mask6" mask-type="alpha" maskUnits="userSpaceOnUse" x="74" y="5" width="10" height="12">
<path fill-rule="evenodd" clip-rule="evenodd" d="M77.1108 5.65942H80.6474C82.2835 5.68743 83.1098 6.52834 83.1374 8.18783V10.2734L77.2182 12.5522V12.7177C77.2182 12.9307 77.2733 13.096 77.3862 13.2193C77.4716 13.3764 77.5791 13.4548 77.7277 13.4548H83.1208V16.0954H77.3862C76.8629 16.0954 76.458 16.0477 76.1688 15.9524C75.8549 15.8486 75.5711 15.6833 75.3232 15.4507C75.0367 15.1732 74.8385 14.8901 74.7421 14.5957C74.6319 14.2902 74.5768 13.8866 74.5768 13.3819L74.5548 8.09531C74.5851 6.4975 75.4389 5.68743 77.1108 5.65942ZM77.1769 8.97261V10.0349L80.4656 8.82114V8.75958C80.4656 8.62217 80.4105 8.51004 80.2976 8.42319C80.1764 8.33907 80.0248 8.29984 79.8458 8.29984H78.0198C77.7857 8.29984 77.5955 8.36152 77.4496 8.49326C77.2678 8.61661 77.1769 8.77636 77.1769 8.97261Z" fill="white"/>
</mask>
<g mask="url(#mask6)">
<path fill-rule="evenodd" clip-rule="evenodd" d="M68.1807 22.5817H89.5132V-0.829834H68.1807V22.5817Z" fill="white"/>
</g>
<mask id="mask7" mask-type="alpha" maskUnits="userSpaceOnUse" x="85" y="5" width="8" height="12">
<path fill-rule="evenodd" clip-rule="evenodd" d="M88.3921 5.58936C87.9735 5.58936 87.6016 5.63142 87.2683 5.71554C86.9241 5.81361 86.599 6.01826 86.2796 6.32381C85.9986 6.61813 85.814 6.91801 85.7259 7.22356C85.6294 7.52911 85.5882 7.88227 85.6047 8.28317V13.2082C85.6047 13.6876 85.6736 14.1137 85.8196 14.4864C85.9545 14.8676 86.2025 15.2097 86.5632 15.5179C86.9158 15.7814 87.26 15.9384 87.6043 15.9944C87.9321 16.059 88.2957 16.0955 88.6923 16.0955H92.4768V15.4787H88.7281C88.4004 15.4787 88.0891 15.4479 87.7999 15.3835C87.5217 15.3302 87.238 15.1984 86.9516 14.9854C86.6871 14.7415 86.5027 14.4584 86.3952 14.1388C86.285 13.8109 86.2327 13.4773 86.2327 13.1298V8.19905C86.2327 7.45621 86.4393 6.93207 86.8469 6.62652C87.2463 6.34626 87.7916 6.20884 88.4857 6.20884H92.4163V5.58936H88.3921Z" fill="white"/>
</mask>
<g mask="url(#mask7)">
<path fill-rule="evenodd" clip-rule="evenodd" d="M79.226 22.5819H98.8535V-0.896851H79.226V22.5819Z" fill="white"/>
</g>
<mask id="mask8" mask-type="alpha" maskUnits="userSpaceOnUse" x="94" y="5" width="10" height="12">
<path fill-rule="evenodd" clip-rule="evenodd" d="M94.8406 5.58936H100.245C100.738 5.58936 101.184 5.62586 101.589 5.69026C101.795 5.73232 101.985 5.81361 102.162 5.92574C102.343 6.03504 102.517 6.1949 102.677 6.4051C103.162 7.01619 103.398 7.72253 103.387 8.51582V13.253C103.387 13.6484 103.354 13.9959 103.302 14.3042C103.219 14.6378 103.046 14.9574 102.781 15.2628C102.23 15.8291 101.545 16.1066 100.732 16.0954H97.595C96.7824 16.0954 96.1186 15.8543 95.6091 15.3806C95.0857 14.9125 94.8241 14.2622 94.8241 13.4268V11.8375C94.8489 10.0436 95.7605 9.12692 97.5564 9.08485H102.781V8.38963C102.781 7.81788 102.611 7.31607 102.275 6.88445C102.06 6.60407 101.806 6.41916 101.52 6.32097C101.228 6.24535 100.903 6.20884 100.539 6.20884H94.8406V5.58936ZM96.0471 14.9236C96.5015 15.2936 97.0084 15.4786 97.5564 15.4786H100.751C102.09 15.4618 102.759 14.7723 102.759 13.4071V9.69867H97.4876C96.8568 9.71545 96.3638 9.90604 96.0058 10.2761C95.6366 10.6489 95.4549 11.1646 95.4549 11.815V13.3846C95.4549 13.6902 95.4879 13.9706 95.554 14.22C95.6201 14.4863 95.7854 14.719 96.0471 14.9236Z" fill="white"/>
</mask>
<g mask="url(#mask8)">
<path fill-rule="evenodd" clip-rule="evenodd" d="M88.4478 22.5819H109.764V-0.896851H88.4478V22.5819Z" fill="white"/>
</g>
<mask id="mask9" mask-type="alpha" maskUnits="userSpaceOnUse" x="106" y="5" width="5" height="12">
<path fill-rule="evenodd" clip-rule="evenodd" d="M109.386 5.58936C107.433 5.58936 106.472 6.5789 106.502 8.55788V16.0955H107.128V8.55505C107.1 7.01619 107.822 6.23696 109.284 6.20884H110.083V5.58936H109.386Z" fill="white"/>
</mask>
<g mask="url(#mask9)">
<path fill-rule="evenodd" clip-rule="evenodd" d="M100.126 22.5819H116.46V-0.896851H100.126V22.5819Z" fill="white"/>
</g>
<mask id="mask10" mask-type="alpha" maskUnits="userSpaceOnUse" x="111" y="2" width="10" height="15">
<path fill-rule="evenodd" clip-rule="evenodd" d="M119.908 2.1864H120.536V13.1773C120.481 15.1647 119.404 16.1402 117.311 16.0981H114.978C114.487 16.0981 114.047 16.0589 113.662 15.9776C113.259 15.8767 112.874 15.6356 112.504 15.2629C112.229 14.9265 112.05 14.5901 111.981 14.2396C111.882 13.8949 111.841 13.5109 111.857 13.0905V8.6027C111.882 6.58165 112.924 5.57816 114.978 5.59211H119.908V2.1864ZM113.989 15.3664C114.278 15.4421 114.6 15.4785 114.955 15.4785H117.132C117.942 15.4785 118.605 15.2991 119.117 14.9264C119.63 14.5816 119.888 13.9845 119.908 13.1324V6.21148H114.936C114.581 6.21148 114.259 6.25071 113.97 6.32361C113.666 6.39368 113.373 6.57315 113.099 6.86464C112.837 7.13096 112.675 7.39717 112.604 7.65793C112.513 7.92697 112.471 8.24658 112.485 8.61936V13.4267C112.485 14.2256 112.722 14.7722 113.201 15.0637C113.438 15.1982 113.697 15.2991 113.989 15.3664Z" fill="white"/>
</mask>
<g mask="url(#mask10)">
<path fill-rule="evenodd" clip-rule="evenodd" d="M105.479 22.5872H126.913V-4.30005H105.479V22.5872Z" fill="white"/>
</g>
<mask id="mask11" mask-type="alpha" maskUnits="userSpaceOnUse" x="0" y="0" width="12" height="6">
<path fill-rule="evenodd" clip-rule="evenodd" d="M0.297136 5.02313C0.280606 5.26417 0.275096 5.51371 0.283361 5.77719C0.525748 5.57822 0.798429 5.39874 1.12344 5.26145C1.33002 5.17177 1.53934 5.10442 1.74317 5.05964C2.12051 3.29086 3.72354 1.95937 5.64333 1.95937C7.56586 1.95937 9.16884 3.29086 9.54899 5.05964C10.1384 5.17177 10.6232 5.40441 11.0061 5.75191C11.0198 5.40997 11.0061 5.08197 10.9647 4.77654C10.7223 2.0995 8.43076 0 5.63507 0C2.75952 0 0.418324 2.23124 0.297136 5.02313Z" fill="white"/>
</mask>
<g mask="url(#mask11)">
<path fill-rule="evenodd" clip-rule="evenodd" d="M-6.09562 12.2663H17.3852V-6.48645H-6.09562V12.2663Z" fill="white"/>
</g>
<mask id="mask12" mask-type="alpha" maskUnits="userSpaceOnUse" x="0" y="5" width="12" height="12">
<path fill-rule="evenodd" clip-rule="evenodd" d="M2.35772 5.65942C2.04924 5.65942 1.72973 5.72949 1.39921 5.87246C1.08246 6.00976 0.823553 6.17234 0.614215 6.36859C0.214836 6.83672 0.0110202 7.52344 0 8.42331V13.3315C0.0110202 14.2341 0.214836 14.9181 0.614215 15.3805C0.823553 15.5796 1.08246 15.745 1.39921 15.8795C1.72973 16.0225 2.04924 16.0954 2.35772 16.0954H8.76715C10.4224 16.0813 11.2653 15.1899 11.2901 13.4324V8.31957C11.2653 6.55918 10.4224 5.67348 8.76715 5.65942H2.35772Z" fill="white"/>
</mask>
<g mask="url(#mask12)">
<path fill-rule="evenodd" clip-rule="evenodd" d="M-6.3763 22.5817H17.6664V-0.829834H-6.3763V22.5817Z" fill="white"/>
</g>
</svg>
