<svg width="190" height="44" viewBox="0 0 190 44" fill="none" xmlns="http://www.w3.org/2000/svg">
<path d="M6.18896 0.5H171.673C172.711 0.5 173.061 0.51255 173.354 0.660189C173.647 0.807828 173.865 1.08113 174.484 1.91527L187.832 19.9153C188.264 20.4987 188.563 20.9024 188.758 21.241C188.946 21.5683 189.01 21.7893 189.01 22C189.01 22.2107 188.946 22.4317 188.758 22.759C188.563 23.0976 188.264 23.5013 187.832 24.0847L174.484 42.0847C173.865 42.9189 173.647 43.1922 173.354 43.3398C173.061 43.4874 172.711 43.5 171.673 43.5H6.18898C4.39083 43.5 3.09942 43.4987 2.18526 43.365C1.26582 43.2305 0.906773 42.9861 0.746678 42.6584C0.586583 42.3306 0.614527 41.8972 1.07367 41.0893C1.53017 40.2861 2.32301 39.2667 3.42839 37.8484L13.6245 24.7663L13.6436 24.7417C14.0876 24.1721 14.4481 23.7095 14.6937 23.3027C14.9498 22.8786 15.1109 22.4684 15.1109 22C15.1109 21.5316 14.9498 21.1214 14.6937 20.6973C14.4481 20.2904 14.0876 19.8279 13.6436 19.2583L13.6245 19.2337L3.42838 6.15156C2.32301 4.7333 1.53017 3.71392 1.07366 2.9107C0.614527 2.10284 0.586583 1.6694 0.746678 1.34165C0.906773 1.0139 1.26582 0.769486 2.18525 0.635011C3.09941 0.501307 4.39082 0.5 6.18896 0.5Z" stroke="#FFCA30"/>
</svg>
