<svg width="59" height="20" viewBox="0 0 59 20" fill="none" xmlns="http://www.w3.org/2000/svg">
<path fill-rule="evenodd" clip-rule="evenodd" d="M39.3503 2.40338C39.3503 3.72922 40.417 4.80444 41.7323 4.80444C43.0477 4.80444 44.1168 3.72922 44.1168 2.40338C44.1168 1.0752 43.0477 0 41.7323 0C40.417 0 39.3503 1.0752 39.3503 2.40338ZM53.2584 1.96521V19.8008H58.0992V1.09146L53.2584 1.96521ZM46.2006 1.96521V19.8008H51.0322V1.09146L46.2006 1.96521ZM15.7217 2.08702V19.8008H20.7113V14.3265C22.1568 16.5096 22.8727 19.8008 22.8727 19.8008H28.85C28.2573 17.3225 25.6707 12.7524 25.6707 12.7524C27.9924 9.78676 29.0126 6.62673 29.1753 6.10196H23.4676C23.3607 6.37375 22.5868 8.57805 20.7113 10.8643V1.09146L15.7217 2.08702ZM0 7.03664C0 8.61554 0.669311 12.3377 6.91617 12.7687C7.44372 12.8016 8.84747 12.8811 8.84747 14.2093C8.84747 15.3057 7.69704 15.9521 5.76581 15.9521C3.644 15.9521 1.58728 15.4063 0.339295 14.8886V19.2621C2.2101 19.754 4.31564 20 6.78835 20C12.1172 20 14.5063 16.9711 14.5063 13.9728C14.5063 10.5667 11.8337 8.35546 7.35075 8.05092C6.73955 8.01119 5.32425 7.91976 5.32425 6.63607C5.32425 5.08545 7.36238 5.08545 8.12697 5.08545C9.47026 5.08545 11.2086 5.4859 12.4543 5.86069C12.4543 5.86069 13.1468 6.1067 13.7371 6.35967L13.7928 6.37375V6.31757V2.12918L13.7184 2.1081C12.2498 1.59042 10.5439 1.09146 7.38329 1.09146C1.9289 1.09146 0 4.29363 0 7.03664ZM36.5895 5.91986C32.1181 6.06273 29.8477 8.0843 29.8477 12.1017V19.8013H34.7256V13.5235C34.7256 11.1178 35.0394 10.0848 37.8723 9.98879V5.98774C37.5795 5.92684 37.1612 5.91513 36.8823 5.91513C36.7081 5.91513 36.5895 5.91986 36.5895 5.91986ZM39.3147 19.801H44.1531V6.11853H39.3147V19.801Z" fill="white"/>
</svg>
