<svg width="40" height="20" viewBox="0 0 40 20" fill="none" xmlns="http://www.w3.org/2000/svg">
<path d="M24.6151 5.2488C24.5692 4.94422 24.321 4.42739 23.5304 4.42739C22.9879 4.42739 22.6386 4.76882 22.6386 5.12875C22.6386 5.4427 22.8316 5.6733 23.2822 5.7564L24.1556 5.92255C25.3968 6.1533 26.0401 6.9562 26.0401 7.8883C26.0401 8.91285 25.1852 9.9556 23.6315 9.9556C21.8296 9.9556 21.0573 8.78355 20.9654 7.8607L22.2984 7.5376C22.3536 8.1374 22.7581 8.6636 23.6498 8.6636C24.2199 8.6636 24.5691 8.38665 24.5691 7.9806C24.5691 7.6483 24.3025 7.4083 23.8705 7.32525L22.9787 7.1591C21.8755 6.94685 21.2044 6.2085 21.2044 5.23945C21.2044 4.00263 22.2893 3.13525 23.5396 3.13525C25.1668 3.13525 25.7828 4.11357 25.9207 4.87951L24.6151 5.2488Z" fill="white"/>
<path d="M30.2133 5.2488C30.1674 4.94422 29.9191 4.42739 29.1285 4.42739C28.5861 4.42739 28.2368 4.76882 28.2368 5.12875C28.2368 5.4427 28.4298 5.6733 28.8804 5.7564L29.7537 5.92255C30.9948 6.1533 31.6383 6.9562 31.6383 7.8883C31.6383 8.91285 30.7834 9.9556 29.2296 9.9556C27.4278 9.9556 26.6556 8.78355 26.5635 7.8607L27.8965 7.5376C27.9518 8.1374 28.3562 8.6636 29.248 8.6636C29.8179 8.6636 30.1672 8.38665 30.1672 7.9806C30.1672 7.6483 29.9007 7.4083 29.4686 7.32525L28.5769 7.1591C27.4737 6.94685 26.8027 6.2085 26.8027 5.23945C26.8027 4.00263 27.8874 3.13525 29.1377 3.13525C30.7649 3.13525 31.3809 4.11357 31.5188 4.87951L30.2133 5.2488Z" fill="white"/>
<path d="M32.6309 9.8194V3.27588H34.0835V8.4258H36.8967V9.8194H32.6309Z" fill="white"/>
<path d="M21.9348 12.374C21.9205 12.2794 21.8433 12.1187 21.5977 12.1187C21.4292 12.1187 21.3207 12.2248 21.3207 12.3368C21.3207 12.4343 21.3807 12.506 21.5206 12.5318L21.792 12.5834C22.1776 12.6551 22.3776 12.9045 22.3776 13.1942C22.3776 13.5126 22.112 13.8365 21.6291 13.8365C21.0693 13.8365 20.8293 13.4723 20.8008 13.1854L21.215 13.0851C21.2321 13.2716 21.3578 13.435 21.6349 13.435C21.8119 13.435 21.9205 13.3489 21.9205 13.2228C21.9205 13.1196 21.8378 13.045 21.7034 13.0192L21.4264 12.9676C21.0835 12.9016 20.8751 12.6723 20.8751 12.3711C20.8751 11.9869 21.2122 11.7173 21.6006 11.7173C22.1063 11.7173 22.2976 12.0212 22.3405 12.2593L21.9348 12.374Z" fill="white"/>
<path d="M22.6855 13.7934V11.7603H23.9682V12.1876H23.1369V12.5747H23.8911V12.9733H23.1369V13.3633H23.971V13.7934H22.6855Z" fill="white"/>
<path d="M24.2304 12.7812C24.2304 12.1473 24.7103 11.7173 25.2758 11.7173C25.8843 11.7173 26.1528 12.1102 26.2186 12.4027L25.7929 12.5374C25.7615 12.397 25.633 12.1589 25.2758 12.1589C25.0046 12.1589 24.699 12.3539 24.699 12.7812C24.699 13.1626 24.9789 13.3834 25.2817 13.3834C25.633 13.3834 25.773 13.1483 25.813 13.0019L26.2443 13.1253C26.1786 13.4064 25.9101 13.8365 25.2817 13.8365C24.699 13.8365 24.2304 13.4149 24.2304 12.7812Z" fill="white"/>
<path d="M26.5098 13.0593V11.7603H26.9612V13.0222C26.9612 13.2687 27.0983 13.3921 27.3125 13.3921C27.5267 13.3921 27.6638 13.2687 27.6638 13.0222V11.7603H28.1152V13.0594C28.1152 13.5698 27.7581 13.8394 27.3125 13.8394C26.8669 13.8394 26.5098 13.5698 26.5098 13.0593Z" fill="white"/>
<path d="M29.1486 13.0363H28.9885V13.7935H28.5371V11.7603H29.3398C29.7397 11.7603 29.9968 12.0356 29.9968 12.3969C29.9968 12.6722 29.8454 12.8815 29.5969 12.9704L30.0083 13.7934H29.5113L29.1486 13.0363ZM29.2543 12.6464C29.44 12.6464 29.5399 12.5432 29.5399 12.3998C29.5399 12.2479 29.44 12.1533 29.2543 12.1533H28.9886V12.6465H29.2543V12.6464Z" fill="white"/>
<path d="M30.3301 13.7934V11.7603H31.6128V12.1876H30.7815V12.5747H31.5357V12.9733H30.7815V13.3633H31.6156V13.7934H30.3301Z" fill="white"/>
<path d="M20.9463 17.233V15.1997H22.229V15.627H21.3976V16.0142H22.1519V16.4127H21.3976V16.8028H22.2317V17.2329H20.9463V17.233Z" fill="white"/>
<path d="M23.894 17.233L23.0599 15.8966V17.233H22.6114V15.1997H23.1598L23.9197 16.4358V15.1997H24.371V17.233H23.894Z" fill="white"/>
<path d="M24.6905 16.2211C24.6905 15.5873 25.1703 15.1572 25.7359 15.1572C26.3443 15.1572 26.6129 15.5502 26.6786 15.8426L26.253 15.9773C26.2215 15.8369 26.093 15.5988 25.7359 15.5988C25.4646 15.5988 25.159 15.7938 25.159 16.2211C25.159 16.6026 25.4389 16.8233 25.7417 16.8233C26.093 16.8233 26.233 16.5883 26.273 16.4419L26.7043 16.5652C26.6386 16.8464 26.3701 17.2764 25.7417 17.2764C25.159 17.2764 24.6905 16.8549 24.6905 16.2211Z" fill="white"/>
<path d="M27.6231 16.4759H27.4631V17.233H27.0117V15.1997H27.8144C28.2143 15.1997 28.4714 15.4751 28.4714 15.8364C28.4714 16.1117 28.32 16.3209 28.0715 16.4098L28.4829 17.2329H27.9858L27.6231 16.4759ZM27.7287 16.0859C27.9145 16.0859 28.0145 15.9826 28.0145 15.8393C28.0145 15.6873 27.9145 15.5927 27.7287 15.5927H27.4632V16.086H27.7287V16.0859Z" fill="white"/>
<path d="M28.585 15.1997H29.1134L29.5276 15.9539L29.9474 15.1997H30.4501L29.7389 16.3842V17.233H29.2875V16.3842L28.585 15.1997Z" fill="white"/>
<path d="M31.1496 16.5018V17.233H30.6982V15.1997H31.461C31.8723 15.1997 32.1551 15.4721 32.1551 15.8508C32.1551 16.235 31.8723 16.5018 31.461 16.5018H31.1496ZM31.4153 16.1118C31.5867 16.1118 31.7038 16.0114 31.7038 15.8537C31.7038 15.6902 31.5867 15.5927 31.4153 15.5927H31.1525V16.1118H31.4153Z" fill="white"/>
<path d="M33.3573 15.6327V17.233H32.9059V15.6327H32.2832V15.1997H33.9828V15.6327H33.3573Z" fill="white"/>
<path d="M34.2568 17.233V15.1997H34.7139V17.233H34.2568Z" fill="white"/>
<path d="M36.0872 15.1572C36.6557 15.1572 37.1384 15.573 37.1384 16.2183C37.1384 16.8607 36.6557 17.2764 36.0872 17.2764C35.5159 17.2764 35.0332 16.8607 35.0332 16.2183C35.0331 15.573 35.5159 15.1572 36.0872 15.1572ZM36.0872 16.8291C36.3671 16.8291 36.6699 16.6398 36.6699 16.2153C36.6699 15.7909 36.3671 15.5988 36.0872 15.5988C35.8044 15.5988 35.5016 15.7911 35.5016 16.2153C35.5016 16.6398 35.8044 16.8291 36.0872 16.8291Z" fill="white"/>
<path d="M38.7436 17.233L37.9095 15.8966V17.233H37.4609V15.1997H38.0094L38.7692 16.4358V15.1997H39.2206V17.233H38.7436Z" fill="white"/>
<path d="M8.2819 3.82422C7.5245 3.82422 6.9082 4.44291 6.9082 5.20345V7.1309H9.65565V5.2036C9.65565 4.44305 9.03935 3.82422 8.2819 3.82422Z" fill="#DEDEDE"/>
<path d="M0 0V11.6854C0 16.2774 3.70811 20 8.2823 20C12.8566 20 16.5646 16.2774 16.5646 11.6854V0H0ZM13.2025 14.664H3.36211V7.1296H5.1578V5.20215C5.1578 3.47246 6.5594 2.06525 8.2823 2.06525C10.0052 2.06525 11.4068 3.47246 11.4068 5.20215V7.1296H13.2025V14.664Z" fill="#DEDEDE"/>
<path d="M7.27238 12.7382C6.98473 12.4246 5.39158 10.629 5.30408 10.384C5.24778 10.2263 5.29933 9.829 5.60953 9.56415C5.91968 9.29925 6.25599 9.2334 6.36424 9.3002C6.65249 9.47785 7.97623 10.7216 8.06818 10.8183C8.16003 10.9149 8.23119 10.9198 8.29099 10.7899C8.73474 9.82465 9.67248 8.21655 10.2472 7.2997C10.6999 6.57735 11.659 5.1343 13.3539 3.86755C14.0682 3.33363 14.905 3.18274 15.206 3.18761C15.4429 3.1914 15.5361 3.32768 15.3624 3.45396C14.947 3.75588 14.3294 4.38431 13.8106 5.03845C12.9965 6.06505 12.2967 7.1694 11.6412 8.30175C11.0304 9.35685 9.54413 12.006 9.14753 12.6723C8.92043 13.0321 7.71953 13.1872 7.27238 12.7382Z" fill="white"/>
</svg>
