<svg width="138" height="42" viewBox="0 0 138 42" fill="none" xmlns="http://www.w3.org/2000/svg">
<path d="M31.7024 12.946H27.2538V10.5295L27.2651 10.0695C27.2651 4.50861 22.7712 0 17.2262 0C11.6811 0 7.18719 4.50747 7.18719 10.0695L7.19059 10.1633H7.18719V12.946H2.74866C1.26691 12.946 -0.18323 13.6704 0.130989 15.3772L3.42117 30.1576C3.71278 31.4099 4.62151 32.2733 6.10554 32.2733H28.3457C29.8286 32.2733 30.7406 31.4099 31.0299 30.1576L34.3213 15.3772C34.6345 13.6704 33.1853 12.946 31.7024 12.946ZM21.5573 19.1613C21.5573 19.3568 21.5573 19.523 21.1685 19.523H19.1465C18.9238 19.523 18.8277 19.5648 18.8277 19.7885V26.7792C18.8277 27.141 18.6198 27.2382 18.1213 27.2382H16.1242C15.5703 27.2382 15.4178 27.1828 15.4178 26.7792V19.7885C15.4178 19.5648 15.3206 19.523 15.1001 19.523H13.2285C12.8408 19.523 12.8408 19.3568 12.8408 19.1613V17.4376C12.8408 17.1042 13.0905 17.0624 13.4782 17.0624H20.9198C21.3086 17.0624 21.5573 17.1042 21.5573 17.4376V19.1613ZM23.6878 12.946H10.7588V9.8615H10.7667L10.7656 9.77674C10.7656 6.19834 13.6591 3.29583 17.2273 3.29583C20.7955 3.29583 23.6878 6.19721 23.6878 9.77674L23.6855 9.8615H23.6878V12.946Z" fill="#3D3D3D"/>
<path d="M14.4589 37.0371C14.4589 39.24 12.681 41.0247 10.4849 41.0247C8.28879 41.0247 6.50864 39.24 6.50864 37.0371C6.50864 34.8355 8.28879 33.0507 10.4849 33.0507C12.6798 33.0507 14.4589 34.8355 14.4589 37.0371Z" fill="#3D3D3D"/>
<path d="M27.9444 37.0371C27.9444 39.24 26.1643 41.0247 23.9704 41.0247C21.7743 41.0247 19.993 39.24 19.993 37.0371C19.993 34.8355 21.7743 33.0507 23.9704 33.0507C26.1654 33.0507 27.9444 34.8355 27.9444 37.0371Z" fill="#3D3D3D"/>
<path d="M56.4108 17.5904H52.442C52.0077 17.5904 51.8175 17.6722 51.8175 18.1086V31.8247C51.8175 32.5342 51.4089 32.7245 50.4307 32.7245H46.5155C45.4288 32.7245 45.1299 32.616 45.1299 31.8247V18.1086C45.1299 17.6722 44.9396 17.5904 44.5054 17.5904H40.8354C40.0755 17.5904 40.0755 17.2635 40.0755 16.8807V13.5001C40.0755 12.8464 40.5634 12.7635 41.3245 12.7635H55.9229C56.6829 12.7635 57.1731 12.8464 57.1731 13.5001V16.8807C57.1731 17.2635 57.1731 17.5904 56.4119 17.5904" fill="#3D3D3D"/>
<path d="M68.2121 18.0319C68.4292 18.0319 68.8366 18.0319 68.8366 18.4953V21.6541C68.8366 21.9809 68.6744 22.2808 68.2121 22.2808C67.4779 22.2808 66.2872 22.3148 65.6616 22.5611C64.4919 23.0245 64.1067 23.614 64.1067 24.7346V31.2528C64.1067 31.9602 64.1347 32.7248 63.1284 32.7248H59.4853C58.4522 32.7248 58.1534 32.1528 58.1534 31.4442V21.2571C58.1534 19.5506 58.8573 18.0553 62.2589 18.0553L68.211 18.033" fill="#3D3D3D"/>
<path d="M74.5701 32.7536C72.6941 32.7536 70.6315 31.8804 70.6315 28.3901V19.5291C70.6315 18.7657 70.9304 18.056 71.6914 18.056H75.4969C76.1762 18.056 76.8288 18.5207 76.8288 19.2023V26.2914C76.8288 26.9462 77.0459 27.656 77.8887 27.656C78.7584 27.656 79.0315 26.9743 79.0315 26.3463V19.5291C79.0315 18.8193 79.0035 18.056 80.0097 18.056H83.6517C84.6848 18.056 84.9836 18.6292 84.9836 19.3377V28.3471C84.9836 32.1875 82.6362 32.7536 81.6032 32.7536L74.5688 32.7547" fill="#3D3D3D"/>
<path d="M93.4938 33.1084C90.6386 33.1084 88.0296 32.5364 87.4319 32.2352C87.16 32.0998 86.9148 28.2267 87.7308 28.4181C88.3285 28.5548 89.3336 28.9096 91.591 28.9096C92.7875 28.9096 93.467 28.7462 93.467 28.1731C93.467 27.7912 92.8156 27.5194 91.9984 27.1645C90.2312 26.3998 87.4857 25.3376 87.4857 22.1194C87.4857 18.8205 91.2093 17.512 94.7976 17.512C97.6517 17.512 98.4933 17.8119 98.902 17.9754C99.418 18.1668 98.8739 21.6021 98.1421 21.5753C97.6517 21.5474 95.993 21.2485 95.0965 21.2485C94.172 21.2485 93.7646 21.4119 93.7646 21.8753C93.7646 22.1205 94.2818 22.4204 95.0965 22.8021C96.9456 23.6474 99.9093 25.0388 99.9093 28.3096C99.9093 32.5645 96.1027 33.1096 93.4927 33.1096" fill="#3D3D3D"/>
<path d="M110.457 22.1188H108.798V28.0371C108.798 28.5542 109.207 28.7736 109.805 28.7736C109.94 28.7736 110.075 28.7736 110.212 28.7468C110.62 28.6919 111.027 32.454 110.755 32.5907C110.347 32.7821 108.797 33.1101 107.384 33.1101C103.795 33.1101 102.817 30.7919 102.79 29.1553C102.762 27.5199 102.79 22.0394 102.79 22.0394H101.893C101.213 22.0394 101.077 21.6028 101.077 20.9212V19.1479C101.077 18.3846 101.321 18.0844 102.083 18.0844H103.088V16.176C103.088 15.4942 103.768 15.1393 104.42 15.0308L107.546 14.5137C108.606 14.3491 108.606 14.7321 108.606 15.4955V18.0857H110.318C110.999 18.0857 111.188 18.7405 111.188 19.4223V20.9772C111.188 21.7406 111.188 22.1211 110.454 22.1211" fill="#3D3D3D"/>
<path d="M118.339 32.7254H114.425C113.472 32.7254 113.365 32.6168 113.365 31.7715V13.2289C113.365 12.8202 113.636 12.4655 114.181 12.4655H118.068C119.236 12.4655 119.318 12.8202 119.318 13.4192V31.4705C119.318 32.1802 119.345 32.7241 118.34 32.7241" fill="#3D3D3D"/>
<path d="M129.403 37.0882C129.186 37.6076 128.669 38.1785 128.125 38.1785H125.055C124.077 38.1785 123.94 37.8516 124.211 37.2249L126.25 32.3722L120.868 19.0101C120.624 18.3832 120.868 18.0552 121.71 18.0552H126.14C126.684 18.0552 127.228 18.6016 127.419 19.1466L129.376 24.7089L131.605 19.1466C131.823 18.6016 132.339 18.0552 132.882 18.0552H136.225C137.204 18.0552 137.341 18.3832 137.069 19.0101L129.402 37.0882" fill="#3D3D3D"/>
</svg>
