<svg width="62" height="20" viewBox="0 0 62 20" fill="none" xmlns="http://www.w3.org/2000/svg">
<path fill-rule="evenodd" clip-rule="evenodd" d="M32.0307 6.3939C31.9954 9.17984 34.5136 10.7345 36.4105 11.6589C38.3595 12.6074 39.0142 13.2156 39.0067 14.0636C38.9919 15.3618 37.4519 15.9345 36.0107 15.9568C33.4962 15.9958 32.0344 15.278 30.872 14.735L29.9664 18.9733C31.1325 19.5109 33.2916 19.9796 35.5309 20C40.7866 20 44.2251 17.4056 44.2439 13.383C44.2643 8.27793 37.1823 7.9952 37.2306 5.71325C37.2473 5.02145 37.9076 4.28304 39.3545 4.09522C40.0704 4.00047 42.0474 3.92785 44.2885 4.95998L45.1681 0.859333C43.963 0.420377 42.4137 0 40.4852 0C35.5383 0 32.0587 2.62971 32.0307 6.3939V6.3939ZM53.6208 0.353335C52.6611 0.353335 51.8521 0.913216 51.4914 1.77239L43.9834 19.6987H49.2354L50.2806 16.8104H56.6986L57.3049 19.6987H61.9339L57.8944 0.353335H53.6208ZM54.3553 5.57932L55.871 12.8435H51.7201L54.3553 5.57932ZM25.6629 0.353335L21.5231 19.6987H26.5277L30.6656 0.353335H25.6629ZM18.2592 0.353335L13.0499 13.5205L10.9428 2.32469C10.6955 1.07502 9.71913 0.353335 8.63482 0.353335H0.119067L0 0.915074C1.74824 1.29442 3.73446 1.90633 4.93768 2.56097C5.67407 2.96075 5.88434 3.31037 6.12604 4.26074L10.1171 19.6987H15.4064L23.5149 0.353335H18.2592Z" fill="white"/>
</svg>
